<svg width="15" height="14" viewBox="0 0 15 14" fill="none" xmlns="http://www.w3.org/2000/svg">
<g clip-path="url(#clip0_397_3816)">
<path d="M0.5 7C0.5 8.85652 1.2375 10.637 2.55025 11.9497C3.86301 13.2625 5.64348 14 7.5 14C9.35652 14 11.137 13.2625 12.4497 11.9497C13.7625 10.637 14.5 8.85652 14.5 7C14.5 5.14348 13.7625 3.36301 12.4497 2.05025C11.137 0.737498 9.35652 0 7.5 0C5.64348 0 3.86301 0.737498 2.55025 2.05025C1.2375 3.36301 0.5 5.14348 0.5 7Z" fill="#FCCFE5"/>
<path d="M7.85488 2.89689L10.6469 5.68989C10.7166 5.75982 10.764 5.84881 10.7832 5.94565C10.8024 6.0425 10.7925 6.14286 10.7548 6.23409C10.717 6.32531 10.6531 6.40332 10.5711 6.45828C10.4891 6.51323 10.3926 6.54268 10.2939 6.54289H8.50088V10.2499C8.50088 10.5151 8.39552 10.7695 8.20799 10.957C8.02045 11.1445 7.7661 11.2499 7.50088 11.2499C7.23566 11.2499 6.98131 11.1445 6.79377 10.957C6.60624 10.7695 6.50088 10.5151 6.50088 10.2499V6.54289H4.70788C4.60915 6.54268 4.51269 6.51323 4.43067 6.45828C4.34865 6.40332 4.28474 6.32531 4.24698 6.23409C4.20923 6.14286 4.19933 6.0425 4.21853 5.94565C4.23773 5.84881 4.28518 5.75982 4.35488 5.68989L7.14688 2.89689C7.19333 2.85033 7.2485 2.81339 7.30925 2.78818C7.36999 2.76297 7.43511 2.75 7.50088 2.75C7.56665 2.75 7.63177 2.76297 7.69251 2.78818C7.75326 2.81339 7.80843 2.85033 7.85488 2.89689Z" fill="#BE185D"/>
</g>
<defs>
<clipPath id="clip0_397_3816">
<rect width="14" height="14" fill="white" transform="translate(0.5)"/>
</clipPath>
</defs>
</svg>
