<svg width="31" height="31" viewBox="0 0 31 31" fill="none" xmlns="http://www.w3.org/2000/svg">
<path d="M26.283 4.27759H3.83592C2.80282 4.27759 1.96533 5.11508 1.96533 6.14818V21.1129C1.96533 22.146 2.80282 22.9835 3.83592 22.9835H26.283C27.3161 22.9835 28.1536 22.146 28.1536 21.1129V6.14818C28.1536 5.11508 27.3161 4.27759 26.283 4.27759Z" stroke="black" stroke-width="1.87059" stroke-linejoin="round"/>
<path d="M17.8642 26.7238L17.3966 22.9827H12.7201L12.2524 26.7238H17.8642Z" fill="black" stroke="black" stroke-width="1.87059" stroke-linecap="round" stroke-linejoin="round"/>
<path d="M21.6063 26.7229H8.51221" stroke="black" stroke-width="1.87059" stroke-linecap="round" stroke-linejoin="round"/>
<path d="M1.96533 18.3049V21.1108C1.96672 21.6065 2.16425 22.0815 2.51475 22.432C2.86525 22.7825 3.34024 22.98 3.83592 22.9814H26.283C26.7787 22.98 27.2536 22.7825 27.6042 22.432C27.9547 22.0815 28.1522 21.6065 28.1536 21.1108V18.3049H1.96533ZM15.0594 22.0461C14.8745 22.0461 14.6936 21.9913 14.5398 21.8885C14.386 21.7857 14.2661 21.6396 14.1953 21.4687C14.1246 21.2978 14.106 21.1098 14.1421 20.9283C14.1782 20.7469 14.2673 20.5803 14.3981 20.4495C14.5289 20.3187 14.6956 20.2296 14.877 20.1935C15.0584 20.1574 15.2465 20.1759 15.4174 20.2467C15.5883 20.3175 15.7343 20.4374 15.8371 20.5912C15.9399 20.745 15.9947 20.9258 15.9947 21.1108C15.9947 21.3589 15.8962 21.5968 15.7208 21.7722C15.5454 21.9476 15.3075 22.0461 15.0594 22.0461Z" fill="black"/>
</svg>
