<svg width="15" height="16" viewBox="0 0 15 16" fill="none" xmlns="http://www.w3.org/2000/svg">
<path d="M1.50033 2.66675C1.50033 2.29856 1.7988 2.00008 2.16699 2.00008H8.16699C8.53518 2.00008 8.83366 2.29856 8.83366 2.66675V3.33341C8.83366 3.7016 9.13213 4.00008 9.50033 4.00008C9.86852 4.00008 10.167 3.7016 10.167 3.33341V2.66675C10.167 1.56218 9.27156 0.666748 8.16699 0.666748H2.16699C1.06242 0.666748 0.166992 1.56218 0.166992 2.66675V8.66675C0.166992 9.77132 1.06242 10.6667 2.16699 10.6667H2.83366C3.20185 10.6667 3.50033 10.3683 3.50033 10.0001C3.50033 9.63189 3.20185 9.33341 2.83366 9.33341H2.16699C1.7988 9.33341 1.50033 9.03494 1.50033 8.66675V2.66675Z" fill="#17C653"/>
<path fill-rule="evenodd" clip-rule="evenodd" d="M6.83366 5.33341C5.72909 5.33341 4.83366 6.22884 4.83366 7.33341V13.3334C4.83366 14.438 5.72909 15.3334 6.83366 15.3334H12.8337C13.9382 15.3334 14.8337 14.438 14.8337 13.3334V7.33341C14.8337 6.22885 13.9382 5.33341 12.8337 5.33341H6.83366ZM6.16699 7.33341C6.16699 6.96522 6.46547 6.66675 6.83366 6.66675H12.8337C13.2018 6.66675 13.5003 6.96522 13.5003 7.33341V13.3334C13.5003 13.7016 13.2018 14.0001 12.8337 14.0001H6.83366C6.46547 14.0001 6.16699 13.7016 6.16699 13.3334V7.33341Z" fill="#17C653"/>
</svg>
