<svg width="16" height="16" viewBox="0 0 16 16" fill="none" xmlns="http://www.w3.org/2000/svg">
<path d="M6.5 6.54545C6.91421 6.54545 7.25 6.87107 7.25 7.27273V11.6364C7.25 12.038 6.91421 12.3636 6.5 12.3636C6.08579 12.3636 5.75 12.038 5.75 11.6364V7.27273C5.75 6.87107 6.08579 6.54545 6.5 6.54545Z" fill="#890808"/>
<path d="M10.25 7.27273C10.25 6.87107 9.91421 6.54545 9.5 6.54545C9.08579 6.54545 8.75 6.87107 8.75 7.27273V11.6364C8.75 12.038 9.08579 12.3636 9.5 12.3636C9.91421 12.3636 10.25 12.038 10.25 11.6364V7.27273Z" fill="#890808"/>
<path fill-rule="evenodd" clip-rule="evenodd" d="M4.25 2.90909V2.18182C4.25 0.976833 5.25736 0 6.5 0H9.5C10.7426 0 11.75 0.976833 11.75 2.18182V2.90909H14.75C15.1642 2.90909 15.5 3.2347 15.5 3.63636C15.5 4.03803 15.1642 4.36364 14.75 4.36364H14V13.8182C14 15.0232 12.9926 16 11.75 16H4.25C3.00736 16 2 15.0232 2 13.8182V4.36364H1.25C0.835786 4.36364 0.5 4.03803 0.5 3.63636C0.5 3.2347 0.835786 2.90909 1.25 2.90909H4.25ZM5.75 2.18182C5.75 1.78016 6.08579 1.45455 6.5 1.45455H9.5C9.91421 1.45455 10.25 1.78016 10.25 2.18182V2.90909H5.75V2.18182ZM12.5 4.36364V13.8182C12.5 14.2198 12.1642 14.5455 11.75 14.5455H4.25C3.83579 14.5455 3.5 14.2198 3.5 13.8182V4.36364H12.5Z" fill="#890808"/>
</svg>
