<svg width="48" height="48" viewBox="0 0 48 48" fill="none" xmlns="http://www.w3.org/2000/svg">
<path d="M24 10.5C20.028 10.5 16.575 12.357 14.109 15.0945C13.905 15.069 13.722 15 13.5 15C10.2 15 7.5 17.7 7.5 21C4.905 22.5825 3 25.254 3 28.5C3 33.45 7.05 37.5 12 37.5H19.5V34.5H12C8.6715 34.5 6 31.8285 6 28.5C6.0003 27.321 6.3471 26.168 6.99728 25.1845C7.64746 24.201 8.57235 23.4302 9.657 22.968L10.6875 22.548L10.5465 21.423C10.5277 21.2824 10.5122 21.1413 10.5 21C10.4967 20.5455 10.5977 20.0962 10.795 19.6867C10.9923 19.2772 11.2809 18.9184 11.6384 18.6377C11.996 18.3571 12.4131 18.162 12.8577 18.0676C13.3024 17.9732 13.7627 17.9819 14.2035 18.093L15.141 18.3285L15.7035 17.5785C16.6835 16.3107 17.9407 15.284 19.3787 14.577C20.8168 13.8701 22.3976 13.5017 24 13.5C28.9155 13.5 33.018 16.881 34.1715 21.4215L34.4535 22.593L35.718 22.548C36.0345 22.53 36.105 22.5 36 22.5C39.3285 22.5 42 25.1715 42 28.5C42 31.8285 39.3285 34.5 36 34.5H28.5V37.5H36C40.95 37.5 45 33.45 45 28.5C45 23.766 41.268 19.974 36.609 19.641C34.776 14.361 29.889 10.5 24 10.5ZM24 22.5L18 28.5H22.5V40.5H25.5V28.5H30L24 22.5Z" fill="black"/>
</svg>
