<svg width="20" height="20" viewBox="0 0 20 20" fill="none" xmlns="http://www.w3.org/2000/svg">
<path d="M3.14729 4.81409L8.45426 9.74646V16.5177C8.45426 16.9008 8.91798 17.1306 9.25803 16.9199L11.319 15.6461C11.4633 15.56 11.5457 15.4067 11.5457 15.2439V9.74646L16.8527 4.81409C16.9233 4.74716 16.9712 4.66244 16.9905 4.57043C17.0098 4.47842 16.9996 4.38318 16.9612 4.2965C16.9228 4.20983 16.8579 4.13553 16.7745 4.08283C16.6911 4.03012 16.5928 4.00132 16.492 4.00001H3.51827C3.41654 3.99945 3.31692 4.0269 3.23195 4.07888C3.14698 4.13086 3.08047 4.20506 3.0408 4.29211C3.00113 4.37917 2.99007 4.4752 3.00902 4.56809C3.02797 4.66098 3.07608 4.74657 3.14729 4.81409Z" stroke="#6F4C5A" stroke-width="1.5"/>
</svg>
