<svg width="24" height="24" viewBox="0 0 24 24" fill="none" xmlns="http://www.w3.org/2000/svg">
<path d="M5 4H16M5 4L7 6M5 4L7 2M16 4L14 2M16 4L14 6M11 21.5C8.637 20.6165 6.6665 17.5925 5.68 15.8215C5.254 15.0565 5.4785 14.1175 6.162 13.5705C6.53 13.2762 6.99357 13.128 7.46403 13.1541C7.93449 13.1802 8.37881 13.3788 8.712 13.712L9.5 14.5V8.75C9.5 8.41848 9.6317 8.10054 9.86612 7.86612C10.1005 7.6317 10.4185 7.5 10.75 7.5C11.0815 7.5 11.3995 7.6317 11.6339 7.86612C11.8683 8.10054 12 8.41848 12 8.75V11.75C12 11.4185 12.1317 11.1005 12.3661 10.8661C12.6005 10.6317 12.9185 10.5 13.25 10.5C13.5815 10.5 13.8995 10.6317 14.1339 10.8661C14.3683 11.1005 14.5 11.4185 14.5 11.75V12.75C14.5 12.4185 14.6317 12.1005 14.8661 11.8661C15.1005 11.6317 15.4185 11.5 15.75 11.5C16.0815 11.5 16.3995 11.6317 16.6339 11.8661C16.8683 12.1005 17 12.4185 17 12.75V13.75C17 13.4185 17.1317 13.1005 17.3661 12.8661C17.6005 12.6317 17.9185 12.5 18.25 12.5C18.5815 12.5 18.8995 12.6317 19.1339 12.8661C19.3683 13.1005 19.5 13.4185 19.5 13.75V17.684C19.5 18.219 19.3675 18.748 19.059 19.1855C18.5475 19.91 17.628 21.017 16.5 21.5C14.75 22.25 13.185 22.317 11 21.5Z" stroke="#BE185D" stroke-linecap="round" stroke-linejoin="round"/>
</svg>
