<svg width="25" height="24" viewBox="0 0 25 24" fill="none" xmlns="http://www.w3.org/2000/svg">
<path d="M16 11.5C16 11.9596 15.9095 12.4148 15.7336 12.8394C15.5577 13.264 15.2999 13.6499 14.9749 13.9749C14.6499 14.2999 14.264 14.5577 13.8394 14.7336C13.4148 14.9095 12.9596 15 12.5 15C12.0404 15 11.5852 14.9095 11.1606 14.7336C10.736 14.5577 10.3501 14.2999 10.0251 13.9749C9.70012 13.6499 9.44231 13.264 9.26642 12.8394C9.09053 12.4148 9 11.9596 9 11.5C9 10.5717 9.36875 9.6815 10.0251 9.02513C10.6815 8.36875 11.5717 8 12.5 8C13.4283 8 14.3185 8.36875 14.9749 9.02513C15.6313 9.6815 16 10.5717 16 11.5Z" stroke="#2A2225" stroke-width="1.5"/>
<path d="M21.5 13.6C21.816 13.512 22.1493 13.4677 22.5 13.467V9.533C19.643 9.533 17.786 6.43 19.232 3.967L15.768 2C14.304 4.494 10.698 4.494 9.234 2L5.77 3.967C7.216 6.43 5.357 9.533 2.5 9.533V13.467C5.357 13.467 7.214 16.57 5.768 19.033L9.232 21C9.56414 20.4284 10.0411 19.9544 10.6149 19.6259C11.1886 19.2974 11.8389 19.126 12.5 19.129" stroke="#2A2225" stroke-width="1.5" stroke-linecap="round" stroke-linejoin="round"/>
<path d="M19 15L19.258 15.697C19.596 16.611 19.765 17.068 20.098 17.401C20.432 17.735 20.889 17.904 21.803 18.242L22.5 18.5L21.803 18.758C20.889 19.096 20.432 19.265 20.099 19.598C19.765 19.932 19.596 20.389 19.258 21.303L19 22L18.742 21.303C18.404 20.389 18.235 19.932 17.902 19.599C17.568 19.265 17.111 19.096 16.197 18.758L15.5 18.5L16.197 18.242C17.111 17.904 17.568 17.735 17.901 17.402C18.235 17.068 18.404 16.611 18.742 15.697L19 15Z" stroke="#2A2225" stroke-width="1.5" stroke-linejoin="round"/>
</svg>
