<svg width="28" height="28" viewBox="0 0 28 28" fill="none" xmlns="http://www.w3.org/2000/svg">
<path fill-rule="evenodd" clip-rule="evenodd" d="M15.1968 21.9322V26.351H12.9874V21.9322H15.1968ZM20.3413 18.8861L23.4658 22.0107L21.9035 23.573L18.779 20.4484L20.3413 18.8861ZM7.843 18.8861L9.40529 20.4484L6.28071 23.573L4.71842 22.0107L7.843 18.8861ZM14.0922 8.15902C17.4281 8.15902 20.1325 10.8633 20.1325 14.1993C20.1325 17.5353 17.4281 20.2396 14.0922 20.2396C13.2985 20.2412 12.5124 20.0859 11.7788 19.7829C11.0453 19.4799 10.3788 19.035 9.81763 18.4738C9.25643 17.9127 8.81155 17.2462 8.50853 16.5126C8.2055 15.7791 8.05029 14.993 8.05179 14.1993C8.05179 10.8633 10.7561 8.15902 14.0922 8.15902ZM14.0922 10.3684C11.9764 10.3684 10.2612 12.0836 10.2612 14.2035C10.2603 14.7063 10.3586 15.2044 10.5505 15.6691C10.7425 16.1338 11.0243 16.556 11.3799 16.9116C12.0979 17.6296 13.0724 18.0321 14.0922 18.0302V10.3684ZM26.2438 13.0946V15.304H21.825V13.0946H26.2438ZM6.35922 13.0946V15.304H1.94043V13.0946H6.35922ZM6.28071 4.8256L9.40529 7.95018L7.843 9.51247L4.71842 6.38789L6.28071 4.8256ZM21.9036 4.8256L23.4658 6.38789L20.3413 9.51247L18.779 7.95018L21.9036 4.8256ZM15.1968 2.04761V6.46639H12.9874V2.04761H15.1968Z" fill="#7C5968"/>
</svg>
