<svg width="25" height="24" viewBox="0 0 25 24" fill="none" xmlns="http://www.w3.org/2000/svg">
<path d="M12.5 22C14.6217 22 16.6566 21.1571 18.1569 19.6569C19.6571 18.1566 20.5 16.1217 20.5 14C20.5 8 12.5 2 12.5 2C12.112 4.487 11.732 5.822 10.5 8C9.3 7.445 9 7 8.5 5.75C6.5 8 4.5 11 4.5 14C4.5 16.1217 5.34285 18.1566 6.84315 19.6569C8.34344 21.1571 10.3783 22 12.5 22Z" stroke="white" stroke-width="1.5" stroke-linejoin="round"/>
<path d="M10.5 17L14.5 13" stroke="white" stroke-width="1.5" stroke-linecap="round" stroke-linejoin="round"/>
<path d="M10.5 13H10.509M14.491 17H14.5" stroke="white" stroke-width="2" stroke-linecap="round" stroke-linejoin="round"/>
</svg>
