<svg width="24" height="24" viewBox="0 0 24 24" fill="none" xmlns="http://www.w3.org/2000/svg">
<path d="M6.77907 13.9292C6.23039 13.9292 5.70418 14.1396 5.31616 14.5142C4.92814 14.8887 4.71009 15.3967 4.70996 15.9265V16.2795C4.70996 18.0451 5.65542 19.3664 7.10526 20.2186C8.53173 21.0567 10.448 21.4502 12.4996 21.4502C14.5511 21.4502 16.4674 21.0567 17.8938 20.2186C19.3437 19.3664 20.2891 18.0451 20.2891 16.2795V15.9265C20.289 15.3967 20.071 14.8887 19.6829 14.5142C19.2949 14.1396 18.7687 13.9292 18.22 13.9292L6.77907 13.9292Z" fill="url(#paint0_linear_623_1337)"/>
<path d="M6.77907 13.9292C6.23039 13.9292 5.70418 14.1396 5.31616 14.5142C4.92814 14.8887 4.71009 15.3967 4.70996 15.9265V16.2795C4.70996 18.0451 5.65542 19.3664 7.10526 20.2186C8.53173 21.0567 10.448 21.4502 12.4996 21.4502C14.5511 21.4502 16.4674 21.0567 17.8938 20.2186C19.3437 19.3664 20.2891 18.0451 20.2891 16.2795V15.9265C20.289 15.3967 20.071 14.8887 19.6829 14.5142C19.2949 14.1396 18.7687 13.9292 18.22 13.9292L6.77907 13.9292Z" fill="url(#paint1_linear_623_1337)"/>
<path d="M12.4994 2.64746C9.81048 2.64746 7.63086 4.75193 7.63086 7.34808C7.63086 9.94422 9.81048 12.0487 12.4994 12.0487C15.1882 12.0487 17.3678 9.94422 17.3678 7.34808C17.3678 4.75193 15.1882 2.64746 12.4994 2.64746Z" fill="url(#paint2_linear_623_1337)"/>
<defs>
<linearGradient id="paint0_linear_623_1337" x1="8.41488" y1="14.929" x2="10.7751" y2="22.736" gradientUnits="userSpaceOnUse">
<stop offset="0.125" stop-color="#DB2777"/>
<stop offset="1" stop-color="#BE185D"/>
</linearGradient>
<linearGradient id="paint1_linear_623_1337" x1="12.4996" y1="13.0337" x2="15.7995" y2="25.8058" gradientUnits="userSpaceOnUse">
<stop stop-color="#885EDB" stop-opacity="0"/>
<stop offset="1" stop-color="#E362F8"/>
</linearGradient>
<linearGradient id="paint2_linear_623_1337" x1="9.94631" y1="3.89735" x2="14.6625" y2="11.6965" gradientUnits="userSpaceOnUse">
<stop offset="0.125" stop-color="#BE185D"/>
<stop offset="1" stop-color="#DB2777"/>
</linearGradient>
</defs>
</svg>
