<svg width="21" height="21" viewBox="0 0 21 21" fill="none" xmlns="http://www.w3.org/2000/svg">
<path d="M2.64072 6.33675C2.87994 5.45069 3.34725 4.64283 3.99607 3.9937C4.64488 3.34458 5.45253 2.87688 6.33847 2.63725M5.59647 7.13475C5.69612 6.76549 5.89083 6.42881 6.1612 6.15828C6.43157 5.88776 6.76814 5.69285 7.13735 5.593M2.62497 19.25C5.94997 19.25 9.04572 18.2744 11.6436 16.5935C13.6245 15.3115 15.3114 13.6245 16.5935 11.6436C18.3329 8.95774 19.2556 5.82491 19.25 2.625H13.3192L12.2762 7.3255L14.0472 9.0965C12.8734 11.1623 11.1631 12.8725 9.09735 14.0464L7.32635 12.2745L2.62497 13.3201V19.25Z" stroke="#BE185D" stroke-width="2" stroke-linecap="square"/>
</svg>
