<svg width="21" height="21" viewBox="0 0 21 21" fill="none" xmlns="http://www.w3.org/2000/svg">
<path d="M13 2C14.0609 2 15.0783 2.42143 15.8284 3.17157C16.5786 3.92172 17 4.93913 17 6C17 7.06087 16.5786 8.07828 15.8284 8.82843C15.0783 9.57857 14.0609 10 13 10C11.9391 10 10.9217 9.57857 10.1716 8.82843C9.42143 8.07828 9 7.06087 9 6C9 4.93913 9.42143 3.92172 10.1716 3.17157C10.9217 2.42143 11.9391 2 13 2ZM13 4C12.4696 4 11.9609 4.21071 11.5858 4.58579C11.2107 4.96086 11 5.46957 11 6C11 6.53043 11.2107 7.03914 11.5858 7.41421C11.9609 7.78929 12.4696 8 13 8C13.5304 8 14.0391 7.78929 14.4142 7.41421C14.7893 7.03914 15 6.53043 15 6C15 5.46957 14.7893 4.96086 14.4142 4.58579C14.0391 4.21071 13.5304 4 13 4ZM6 10C6.16 10 6.24 10.08 6.24 10.24L6.5 11.5C6.72 11.68 7.04 11.84 7.28 12L8.56 11.5C8.64 11.5 8.8 11.5 8.88 11.6L9.84 13.36C9.92 13.44 9.92 13.6 9.76 13.68L8.72 14.5V15.5L9.76 16.32C9.84 16.4 9.92 16.56 9.84 16.64L8.88 18.4C8.8 18.5 8.64 18.5 8.56 18.5L7.28 18C7.04 18.16 6.72 18.32 6.5 18.5L6.24 19.76C6.24 19.92 6.16 20 6 20H4.00001C3.92001 20 3.76001 19.92 3.76001 19.76L3.60001 18.5C3.28001 18.32 2.96 18.16 2.72001 18L1.50001 18.5C1.36001 18.5 1.20001 18.5 1.20001 18.4L0.160006 16.64C0.0800056 16.56 0.160006 16.4 0.240005 16.32L1.28001 15.5V14.5L0.240005 13.68C0.160006 13.6 0.0800056 13.44 0.160006 13.36L1.20001 11.6C1.20001 11.5 1.36001 11.5 1.50001 11.5L2.72001 12C2.96 11.84 3.28001 11.68 3.60001 11.5L3.76001 10.24C3.76001 10.08 3.92001 10 4.00001 10H6ZM13 11C15.67 11 21 12.33 21 15V18H11.33C11.61 17.41 11.81 16.77 11.91 16.1H19.1V15C19.1 14.36 15.97 12.9 13 12.9C12.57 12.9 12.13 12.94 11.7 13C11.5 12.36 11.23 11.76 10.88 11.21C11.66 11.08 12.4 11 13 11ZM4.96 13.5C4.16 13.5 3.50001 14.16 3.50001 15.04C3.50001 15.84 4.16 16.5 4.96 16.5C5.84 16.5 6.5 15.84 6.5 15.04C6.5 14.16 5.84 13.5 4.96 13.5Z" fill="#BE185D"/>
</svg>
