<svg width="36" height="36" viewBox="0 0 36 36" fill="none" xmlns="http://www.w3.org/2000/svg">
<path opacity="0.2" d="M11.8525 26.104C11.1236 27.5778 9.74247 28.4063 8.33789 28.8745C7.70811 29.0844 7.10134 29.2094 6.59961 29.2856C6.67588 28.7841 6.80193 28.1778 7.01172 27.5483C7.47991 26.1438 8.3085 24.7626 9.78223 24.0337L11.8525 26.104Z" fill="#705C65" stroke="#A07F8D" stroke-width="2.19316"/>
<path opacity="0.2" d="M24.4531 25.3901L20.0205 29.8237L18.9854 24.6538L24.4531 19.187V25.3901Z" fill="#705C65" stroke="#A07F8D" stroke-width="2.19316"/>
<path opacity="0.2" d="M16.6992 11.4331L11.2324 16.8989L6.06348 15.8657L10.4961 11.4331H16.6992Z" fill="#705C65" stroke="#A07F8D" stroke-width="2.19316"/>
<path d="M13.1436 25.8443C11.5928 30.4967 5.38965 30.4967 5.38965 30.4967C5.38965 30.4967 5.38965 24.2935 10.042 22.7427" stroke="#A07F8D" stroke-width="2.19316" stroke-linecap="round" stroke-linejoin="round"/>
<path d="M27.1007 14.9887L17.796 24.2935L11.5928 18.0903L20.8975 8.78551C24.4209 5.26218 27.9442 5.29655 29.4468 5.52074C29.6782 5.55523 29.8923 5.66312 30.0577 5.82852C30.2231 5.99392 30.331 6.20808 30.3655 6.43944C30.5897 7.94204 30.6241 11.4654 27.1007 14.9887Z" stroke="#A07F8D" stroke-width="2.19316" stroke-linecap="round" stroke-linejoin="round"/>
<path d="M25.5499 16.5396V25.3901C25.5499 25.5341 25.5215 25.6767 25.4664 25.8097C25.4113 25.9428 25.3305 26.0637 25.2287 26.1655L20.7955 30.5987C20.6552 30.739 20.4794 30.8386 20.2869 30.8869C20.0943 30.9352 19.8923 30.9303 19.7024 30.8728C19.5124 30.8153 19.3416 30.7073 19.2082 30.5603C19.0748 30.4134 18.9838 30.2329 18.9449 30.0383L17.7959 24.2935" stroke="#A07F8D" stroke-width="2.19316" stroke-linecap="round" stroke-linejoin="round"/>
<path d="M19.3471 10.3364H10.4965C10.3525 10.3364 10.2099 10.3648 10.0769 10.4199C9.94385 10.475 9.82296 10.5558 9.72114 10.6576L5.28798 15.0908C5.14763 15.2311 5.04801 15.4069 4.99973 15.5994C4.95145 15.792 4.95633 15.994 5.01385 16.1839C5.07137 16.3739 5.17936 16.5447 5.32632 16.6781C5.47328 16.8115 5.65369 16.9025 5.84832 16.9414L11.5931 18.0904" stroke="#A07F8D" stroke-width="2.19316" stroke-linecap="round" stroke-linejoin="round"/>
</svg>
