<svg width="25" height="24" viewBox="0 0 25 24" fill="none" xmlns="http://www.w3.org/2000/svg">
<path d="M18.5259 7.80622C19.1312 8.67412 19.5411 9.66301 19.7271 10.7047H22V13.2953H19.7271C19.5411 14.337 19.1312 15.3259 18.5259 16.1938L20.1337 17.8017L18.3017 19.6337L16.6938 18.0259C15.8259 18.6312 14.837 19.0411 13.7953 19.2271V21.5H11.2047V19.2271C10.163 19.0411 9.17412 18.6312 8.30622 18.0259L6.69835 19.6337L4.86627 17.8017L6.47415 16.1938C5.8688 15.3259 5.45895 14.337 5.27287 13.2953H3V10.7047H5.27287C5.45895 9.66301 5.8688 8.67412 6.47415 7.80622L4.86627 6.19835L6.69835 4.36627L8.30622 5.97415C9.17412 5.3688 10.163 4.95895 11.2047 4.77287V2.5H13.7953V4.77287C14.837 4.95895 15.8259 5.3688 16.6938 5.97415L18.3017 4.36627L20.1337 6.19835L18.5259 7.80622Z" stroke="white" stroke-width="1.5" stroke-linejoin="round"/>
<path d="M12.5 14.375C13.1299 14.375 13.734 14.1248 14.1794 13.6794C14.6248 13.234 14.875 12.6299 14.875 12C14.875 11.3701 14.6248 10.766 14.1794 10.3206C13.734 9.87522 13.1299 9.625 12.5 9.625C11.8701 9.625 11.266 9.87522 10.8206 10.3206C10.3752 10.766 10.125 11.3701 10.125 12C10.125 12.6299 10.3752 13.234 10.8206 13.6794C11.266 14.1248 11.8701 14.375 12.5 14.375Z" stroke="white" stroke-width="1.5" stroke-linejoin="round"/>
</svg>
