<svg width="20" height="20" viewBox="0 0 20 20" fill="none" xmlns="http://www.w3.org/2000/svg">
<path d="M7.7373 5.57479L7.79486 4.82042C7.88549 3.65335 8.77457 2.66752 9.93429 2.50097C10.5197 2.41524 11.1185 2.35156 11.7259 2.35156C12.3333 2.35156 12.9334 2.41524 13.5188 2.50097C14.6773 2.66752 15.5664 3.65335 15.6582 4.82042C15.7488 5.9777 15.8333 7.17171 15.8333 8.39145C15.8333 9.6124 15.7476 10.8064 15.6582 11.9637C15.5664 13.1308 14.6773 14.1166 13.5188 14.2832C12.8694 14.3847 12.213 14.4339 11.5557 14.4301" stroke="#6F4C5A" stroke-width="1.3" stroke-linecap="round" stroke-linejoin="round"/>
<path d="M9.35145 5.71581C10.5099 5.88236 11.399 6.86819 11.4909 8.03526C11.5815 9.19254 11.6672 10.3866 11.6672 11.6063C11.6672 12.8272 11.5815 14.0213 11.4909 15.1785C11.399 16.3456 10.5112 17.3314 9.35145 17.498C8.76607 17.5837 8.16723 17.6474 7.55981 17.6474C6.95239 17.6474 6.35232 17.5837 5.76695 17.498C4.60845 17.3314 3.71937 16.3456 3.62752 15.1785C3.5369 14.0213 3.45117 12.8272 3.45117 11.6063C3.45117 10.3853 3.5369 9.19377 3.62752 8.03526C3.71937 6.86819 4.60722 5.88236 5.76695 5.71581C6.35232 5.63009 6.95117 5.56641 7.55981 5.56641C8.16723 5.56641 8.76607 5.63009 9.35145 5.71581Z" stroke="#6F4C5A" stroke-width="1.3" stroke-linecap="round" stroke-linejoin="round"/>
</svg>
