<svg width="24" height="24" viewBox="0 0 24 24" fill="none" xmlns="http://www.w3.org/2000/svg">
<path d="M3 6.83203V9.75H1.5V5.16797L5.60156 3.10547L6.26953 4.45312L3.92578 5.625L6.28125 6.79688L5.60156 8.14453L3 6.83203ZM10.5 2.33203L7.89844 3.64453L7.23047 2.29688L11.25 0.28125L15.2695 2.29688L14.6016 3.64453L12 2.33203V6H10.5V2.33203ZM12 20.168L14.6016 18.8555L15.2812 20.2031L11.25 22.2188L7.23047 20.2031L7.89844 18.8555L10.5 20.168V16.5H12V20.168ZM5.97656 14.168L6.66797 15.5039L3.92578 16.875L6.26953 18.0469L5.60156 19.3945L1.5 17.332V12.75H3V15.668L5.97656 14.168ZM11.25 9.28125L14.6016 7.60547L15.2812 8.95312L12 10.5938V14.25H10.5V10.5938L7.23047 8.95312L7.89844 7.60547L11.25 9.28125ZM16.8984 3.10547L21 5.16797V9.75H19.5V6.83203L16.8984 8.14453L16.2305 6.79688L18.5742 5.625L16.2305 4.45312L16.8984 3.10547ZM19.5 15.668V12.75H21V17.332L16.8984 19.3945L16.2305 18.0469L18.5742 16.875L15.832 15.5039L16.5234 14.168L19.5 15.668Z" fill="#7C666F"/>
</svg>
